<?xml version="1.0" encoding="UTF-8"?>
<svg xmlns="http://www.w3.org/2000/svg" width="1027" height="427" viewBox="0 0 1027 427" fill="none">
  <path fill-rule="evenodd" clip-rule="evenodd" d="M0 71H65.5V83.5L28.5 323.5L65.5 301V356.5H0V71ZM201.5 71H136V83.5L173 323.5L136 301V356.5H201.5V71Z" fill="white"></path>
  <path d="M414.6 73H440.2V185H414.6V73Z" fill="white"></path>
  <path d="M579.924 122.6V132.2C579.924 148.947 574.697 162.333 564.244 172.36C553.897 182.28 540.724 187.24 524.724 187.24C507.337 187.24 492.884 181.64 481.364 170.44C469.95 159.24 464.244 145.48 464.244 129.16C464.244 112.84 469.897 99.0267 481.204 87.72C492.617 76.4133 506.537 70.76 522.964 70.76C533.417 70.76 542.964 73.1067 551.604 77.8C560.35 82.4933 567.124 88.68 571.924 96.36L550.164 108.84C547.71 105 544.03 101.853 539.124 99.4C534.324 96.9467 528.884 95.72 522.804 95.72C513.31 95.72 505.417 98.8667 499.124 105.16C492.937 111.453 489.844 119.507 489.844 129.32C489.844 139.027 493.044 146.973 499.444 153.16C505.844 159.24 514.377 162.28 525.044 162.28C539.87 162.28 549.417 156.52 553.684 145H523.764V122.6H579.924Z" fill="white"></path>
  <path d="M698.676 170.44C687.37 181.64 673.61 187.24 657.396 187.24C641.183 187.24 627.423 181.64 616.116 170.44C604.81 159.24 599.156 145.427 599.156 129C599.156 112.573 604.81 98.76 616.116 87.56C627.423 76.36 641.183 70.76 657.396 70.76C673.61 70.76 687.37 76.36 698.676 87.56C709.983 98.76 715.636 112.573 715.636 129C715.636 145.427 709.983 159.24 698.676 170.44ZM634.036 153C640.33 159.187 648.116 162.28 657.396 162.28C666.676 162.28 674.41 159.187 680.596 153C686.89 146.813 690.036 138.813 690.036 129C690.036 119.187 686.89 111.187 680.596 105C674.41 98.8133 666.676 95.72 657.396 95.72C648.116 95.72 640.33 98.8133 634.036 105C627.85 111.187 624.756 119.187 624.756 129C624.756 138.813 627.85 146.813 634.036 153Z" fill="white"></path>
  <path d="M798.53 185L777.41 148.2H765.25V185H739.65V73H784.45C795.117 73 804.183 76.7333 811.65 84.2C819.117 91.6667 822.85 100.733 822.85 111.4C822.85 118.227 820.93 124.573 817.09 130.44C813.357 136.2 808.397 140.68 802.21 143.88L826.05 185H798.53ZM765.25 97V125.8H784.45C787.97 125.8 790.957 124.413 793.41 121.64C795.97 118.867 797.25 115.453 797.25 111.4C797.25 107.347 795.97 103.933 793.41 101.16C790.957 98.3867 787.97 97 784.45 97H765.25Z" fill="white"></path>
  <path d="M414.6 243H440.2V355H414.6V243Z" fill="white"></path>
  <path d="M486.964 355L450.484 243H478.484L503.284 325.4L528.084 243H556.084L519.604 355H486.964Z" fill="white"></path>
  <path d="M566.349 243H591.949V355H566.349V243Z" fill="white"></path>
  <path d="M687.032 243V267.64H658.232V355H632.632V267.64H603.832V243H687.032Z" fill="white"></path>
  <path d="M734.954 357.24C723.54 357.24 713.994 354.787 706.314 349.88C698.74 344.867 693.354 338.093 690.154 329.56L712.234 316.76C716.714 327.107 724.554 332.28 735.754 332.28C745.887 332.28 750.954 329.24 750.954 323.16C750.954 319.853 749.3 317.293 745.994 315.48C742.794 313.56 736.714 311.373 727.754 308.92C723.06 307.64 718.954 306.2 715.434 304.6C711.914 303 708.447 300.92 705.034 298.36C701.727 295.693 699.167 292.387 697.354 288.44C695.647 284.493 694.794 279.96 694.794 274.84C694.794 264.493 698.474 256.227 705.834 250.04C713.3 243.853 722.154 240.76 732.394 240.76C741.567 240.76 749.674 242.947 756.714 247.32C763.754 251.587 769.3 257.827 773.354 266.04L751.754 278.68C749.727 274.413 747.22 271.213 744.234 269.08C741.247 266.84 737.3 265.72 732.394 265.72C728.554 265.72 725.567 266.573 723.434 268.28C721.407 269.88 720.394 271.853 720.394 274.2C720.394 276.973 721.674 279.373 724.234 281.4C726.9 283.427 732.34 285.667 740.554 288.12C745.034 289.507 748.5 290.627 750.954 291.48C753.407 292.333 756.5 293.773 760.234 295.8C764.074 297.72 766.954 299.8 768.874 302.04C770.9 304.173 772.66 307.053 774.154 310.68C775.754 314.2 776.554 318.253 776.554 322.84C776.554 333.507 772.714 341.933 765.034 348.12C757.354 354.2 747.327 357.24 734.954 357.24Z" fill="white"></path>
  <path d="M879.766 355H850.646L814.806 303.16V355H789.206V243H814.806V291.64L849.046 243H878.166L840.406 297.56L879.766 355Z" fill="white"></path>
  <path d="M890.002 243H915.602V355H890.002V243Z" fill="white"></path>
  <path d="M1026.69 243L989.086 311.96V355H963.486V311.96L925.886 243H955.006L976.286 286.2L997.566 243H1026.69Z" fill="white"></path>
  <rect x="302" width="12" height="427" fill="white"></rect>
</svg>
